<?xml version="1.0" encoding="UTF-8" standalone="no"?>
<!DOCTYPE svg PUBLIC "-//W3C//DTD SVG 1.1//EN"
 "http://www.w3.org/Graphics/SVG/1.1/DTD/svg11.dtd">
<!-- Generated by graphviz version 14.1.1 (20251213.1925)
 -->
<!-- Title: InheritanceTree Pages: 1 -->
<svg width="578pt" height="501pt"
 viewBox="0.00 0.00 578.00 501.00" xmlns="http://www.w3.org/2000/svg" xmlns:xlink="http://www.w3.org/1999/xlink">
<g id="graph0" class="graph" transform="scale(1 1) rotate(0) translate(4 496.5)">
<title>InheritanceTree</title>
<polygon fill="white" stroke="none" points="-4,4 -4,-496.5 574,-496.5 574,4 -4,4"/>
<text xml:space="preserve" text-anchor="middle" x="285" y="-7.2" font-family="Times New Roman,serif" font-size="14.00">simple_mml &#45; Inheritance Hierarchy</text>
<!-- MML_BAG -->
<g id="node1" class="node">
<title>MML_BAG</title>
<path fill="none" stroke="black" d="M323.75,-348.5C323.75,-348.5 262.75,-348.5 262.75,-348.5 256.75,-348.5 250.75,-342.5 250.75,-336.5 250.75,-336.5 250.75,-324.5 250.75,-324.5 250.75,-318.5 256.75,-312.5 262.75,-312.5 262.75,-312.5 323.75,-312.5 323.75,-312.5 329.75,-312.5 335.75,-318.5 335.75,-324.5 335.75,-324.5 335.75,-336.5 335.75,-336.5 335.75,-342.5 329.75,-348.5 323.75,-348.5"/>
<text xml:space="preserve" text-anchor="middle" x="293.25" y="-325.45" font-family="Times New Roman,serif" font-size="14.00">MML_BAG</text>
</g>
<!-- MML_MODEL -->
<g id="node2" class="node">
<title>MML_MODEL</title>
<path fill="none" stroke="black" d="M558,-204.5C558,-204.5 476.75,-204.5 476.75,-204.5 470.75,-204.5 464.75,-198.5 464.75,-192.5 464.75,-192.5 464.75,-180.5 464.75,-180.5 464.75,-174.5 470.75,-168.5 476.75,-168.5 476.75,-168.5 558,-168.5 558,-168.5 564,-168.5 570,-174.5 570,-180.5 570,-180.5 570,-192.5 570,-192.5 570,-198.5 564,-204.5 558,-204.5"/>
<text xml:space="preserve" text-anchor="middle" x="517.38" y="-181.45" font-family="Times New Roman,serif" font-size="14.00">MML_MODEL</text>
</g>
<!-- MML_BAG&#45;&gt;MML_MODEL -->
<g id="edge1" class="edge">
<title>MML_BAG&#45;&gt;MML_MODEL</title>
<path fill="none" stroke="black" d="M336.19,-330.5C405.66,-330.5 535,-330.5 535,-330.5 535,-330.5 535,-216.25 535,-216.25"/>
<polygon fill="none" stroke="black" points="538.5,-216.25 535,-206.25 531.5,-216.25 538.5,-216.25"/>
</g>
<!-- MML_INTERVAL -->
<g id="node3" class="node">
<title>MML_INTERVAL</title>
<path fill="none" stroke="black" d="M109.75,-276.5C109.75,-276.5 12,-276.5 12,-276.5 6,-276.5 0,-270.5 0,-264.5 0,-264.5 0,-252.5 0,-252.5 0,-246.5 6,-240.5 12,-240.5 12,-240.5 109.75,-240.5 109.75,-240.5 115.75,-240.5 121.75,-246.5 121.75,-252.5 121.75,-252.5 121.75,-264.5 121.75,-264.5 121.75,-270.5 115.75,-276.5 109.75,-276.5"/>
<text xml:space="preserve" text-anchor="middle" x="60.88" y="-253.45" font-family="Times New Roman,serif" font-size="14.00">MML_INTERVAL</text>
</g>
<!-- MML_SET -->
<g id="node4" class="node">
<title>MML_SET</title>
<path fill="none" stroke="black" d="M321.5,-276.5C321.5,-276.5 265,-276.5 265,-276.5 259,-276.5 253,-270.5 253,-264.5 253,-264.5 253,-252.5 253,-252.5 253,-246.5 259,-240.5 265,-240.5 265,-240.5 321.5,-240.5 321.5,-240.5 327.5,-240.5 333.5,-246.5 333.5,-252.5 333.5,-252.5 333.5,-264.5 333.5,-264.5 333.5,-270.5 327.5,-276.5 321.5,-276.5"/>
<text xml:space="preserve" text-anchor="middle" x="293.25" y="-253.45" font-family="Times New Roman,serif" font-size="14.00">MML_SET</text>
</g>
<!-- MML_INTERVAL&#45;&gt;MML_SET -->
<g id="edge2" class="edge">
<title>MML_INTERVAL&#45;&gt;MML_SET</title>
<path fill="none" stroke="black" d="M122.23,-258.5C122.23,-258.5 241.3,-258.5 241.3,-258.5"/>
<polygon fill="none" stroke="black" points="241.3,-262 251.3,-258.5 241.3,-255 241.3,-262"/>
</g>
<!-- MML_SET&#45;&gt;MML_MODEL -->
<g id="edge6" class="edge">
<title>MML_SET&#45;&gt;MML_MODEL</title>
<path fill="none" stroke="black" d="M333.6,-258.5C393.77,-258.5 500,-258.5 500,-258.5 500,-258.5 500,-216.18 500,-216.18"/>
<polygon fill="none" stroke="black" points="503.5,-216.18 500,-206.18 496.5,-216.18 503.5,-216.18"/>
</g>
<!-- MML_MAP -->
<g id="node5" class="node">
<title>MML_MAP</title>
<path fill="none" stroke="black" d="M324.5,-204.5C324.5,-204.5 262,-204.5 262,-204.5 256,-204.5 250,-198.5 250,-192.5 250,-192.5 250,-180.5 250,-180.5 250,-174.5 256,-168.5 262,-168.5 262,-168.5 324.5,-168.5 324.5,-168.5 330.5,-168.5 336.5,-174.5 336.5,-180.5 336.5,-180.5 336.5,-192.5 336.5,-192.5 336.5,-198.5 330.5,-204.5 324.5,-204.5"/>
<text xml:space="preserve" text-anchor="middle" x="293.25" y="-181.45" font-family="Times New Roman,serif" font-size="14.00">MML_MAP</text>
</g>
<!-- MML_MAP&#45;&gt;MML_MODEL -->
<g id="edge3" class="edge">
<title>MML_MAP&#45;&gt;MML_MODEL</title>
<path fill="none" stroke="black" d="M337,-192.5C337,-192.5 452.75,-192.5 452.75,-192.5"/>
<polygon fill="none" stroke="black" points="452.75,-196 462.75,-192.5 452.75,-189 452.75,-196"/>
</g>
<!-- MML_RELATION -->
<g id="node6" class="node">
<title>MML_RELATION</title>
<path fill="none" stroke="black" d="M342.5,-132.5C342.5,-132.5 244,-132.5 244,-132.5 238,-132.5 232,-126.5 232,-120.5 232,-120.5 232,-108.5 232,-108.5 232,-102.5 238,-96.5 244,-96.5 244,-96.5 342.5,-96.5 342.5,-96.5 348.5,-96.5 354.5,-102.5 354.5,-108.5 354.5,-108.5 354.5,-120.5 354.5,-120.5 354.5,-126.5 348.5,-132.5 342.5,-132.5"/>
<text xml:space="preserve" text-anchor="middle" x="293.25" y="-109.45" font-family="Times New Roman,serif" font-size="14.00">MML_RELATION</text>
</g>
<!-- MML_RELATION&#45;&gt;MML_MODEL -->
<g id="edge4" class="edge">
<title>MML_RELATION&#45;&gt;MML_MODEL</title>
<path fill="none" stroke="black" d="M345,-132.88C345,-152.41 345,-180.5 345,-180.5 345,-180.5 452.74,-180.5 452.74,-180.5"/>
<polygon fill="none" stroke="black" points="452.74,-184 462.74,-180.5 452.74,-177 452.74,-184"/>
</g>
<!-- MML_SEQUENCE -->
<g id="node7" class="node">
<title>MML_SEQUENCE</title>
<path fill="none" stroke="black" d="M344.75,-60.5C344.75,-60.5 241.75,-60.5 241.75,-60.5 235.75,-60.5 229.75,-54.5 229.75,-48.5 229.75,-48.5 229.75,-36.5 229.75,-36.5 229.75,-30.5 235.75,-24.5 241.75,-24.5 241.75,-24.5 344.75,-24.5 344.75,-24.5 350.75,-24.5 356.75,-30.5 356.75,-36.5 356.75,-36.5 356.75,-48.5 356.75,-48.5 356.75,-54.5 350.75,-60.5 344.75,-60.5"/>
<text xml:space="preserve" text-anchor="middle" x="293.25" y="-37.45" font-family="Times New Roman,serif" font-size="14.00">MML_SEQUENCE</text>
</g>
<!-- MML_SEQUENCE&#45;&gt;MML_MODEL -->
<g id="edge5" class="edge">
<title>MML_SEQUENCE&#45;&gt;MML_MODEL</title>
<path fill="none" stroke="black" d="M357.07,-42.5C423.2,-42.5 517,-42.5 517,-42.5 517,-42.5 517,-156.75 517,-156.75"/>
<polygon fill="none" stroke="black" points="513.5,-156.75 517,-166.75 520.5,-156.75 513.5,-156.75"/>
</g>
<!-- LIB_TESTS -->
<g id="node8" class="node">
<title>LIB_TESTS</title>
<path fill="none" stroke="black" d="M91,-420.5C91,-420.5 30.75,-420.5 30.75,-420.5 24.75,-420.5 18.75,-414.5 18.75,-408.5 18.75,-408.5 18.75,-396.5 18.75,-396.5 18.75,-390.5 24.75,-384.5 30.75,-384.5 30.75,-384.5 91,-384.5 91,-384.5 97,-384.5 103,-390.5 103,-396.5 103,-396.5 103,-408.5 103,-408.5 103,-414.5 97,-420.5 91,-420.5"/>
<text xml:space="preserve" text-anchor="middle" x="60.88" y="-397.45" font-family="Times New Roman,serif" font-size="14.00">LIB_TESTS</text>
</g>
<!-- TEST_SET_BASE -->
<g id="node9" class="node">
<title>TEST_SET_BASE</title>
<path fill="none" stroke="black" d="M341.38,-420.5C341.38,-420.5 245.12,-420.5 245.12,-420.5 239.12,-420.5 233.12,-414.5 233.12,-408.5 233.12,-408.5 233.12,-396.5 233.12,-396.5 233.12,-390.5 239.12,-384.5 245.12,-384.5 245.12,-384.5 341.38,-384.5 341.38,-384.5 347.38,-384.5 353.38,-390.5 353.38,-396.5 353.38,-396.5 353.38,-408.5 353.38,-408.5 353.38,-414.5 347.38,-420.5 341.38,-420.5"/>
<text xml:space="preserve" text-anchor="middle" x="293.25" y="-397.45" font-family="Times New Roman,serif" font-size="14.00">TEST_SET_BASE</text>
</g>
<!-- LIB_TESTS&#45;&gt;TEST_SET_BASE -->
<g id="edge7" class="edge">
<title>LIB_TESTS&#45;&gt;TEST_SET_BASE</title>
<path fill="none" stroke="black" d="M103.5,-402.5C103.5,-402.5 221.45,-402.5 221.45,-402.5"/>
<polygon fill="none" stroke="black" points="221.45,-406 231.45,-402.5 221.45,-399 221.45,-406"/>
</g>
<!-- TEST_APP -->
<g id="node10" class="node">
<title>TEST_APP</title>
<path fill="none" stroke="black" d="M88.75,-492.5C88.75,-492.5 33,-492.5 33,-492.5 27,-492.5 21,-486.5 21,-480.5 21,-480.5 21,-468.5 21,-468.5 21,-462.5 27,-456.5 33,-456.5 33,-456.5 88.75,-456.5 88.75,-456.5 94.75,-456.5 100.75,-462.5 100.75,-468.5 100.75,-468.5 100.75,-480.5 100.75,-480.5 100.75,-486.5 94.75,-492.5 88.75,-492.5"/>
<text xml:space="preserve" text-anchor="middle" x="60.88" y="-469.45" font-family="Times New Roman,serif" font-size="14.00">TEST_APP</text>
</g>
</g>
</svg>
