<?xml version="1.0" encoding="UTF-8" standalone="no"?>
<!DOCTYPE svg PUBLIC "-//W3C//DTD SVG 1.1//EN"
 "http://www.w3.org/Graphics/SVG/1.1/DTD/svg11.dtd">
<!-- Generated by graphviz version 14.1.1 (20251213.1925)
 -->
<!-- Title: Dependencies Pages: 1 -->
<svg width="333pt" height="213pt"
 viewBox="0.00 0.00 333.00 213.00" xmlns="http://www.w3.org/2000/svg" xmlns:xlink="http://www.w3.org/1999/xlink">
<g id="graph0" class="graph" transform="scale(1 1) rotate(0) translate(4 208.5)">
<title>Dependencies</title>
<polygon fill="white" stroke="none" points="-4,4 -4,-208.5 329.25,-208.5 329.25,4 -4,4"/>
<text xml:space="preserve" text-anchor="middle" x="162.62" y="-7.2" font-family="Times New Roman,serif" font-size="14.00">simple_mml &#45; Dependencies</text>
<!-- simple_mml -->
<g id="node1" class="node">
<title>simple_mml</title>
<polygon fill="lightblue" stroke="black" points="85.75,-132.5 0,-132.5 0,-96.5 85.75,-96.5 85.75,-132.5"/>
<text xml:space="preserve" text-anchor="middle" x="42.88" y="-109.45" font-family="Times New Roman,serif" font-size="14.00">simple_mml</text>
</g>
<!-- simple_testing -->
<g id="node2" class="node">
<title>simple_testing</title>
<polygon fill="lightblue" stroke="black" points="325.25,-204.5 229.75,-204.5 229.75,-168.5 325.25,-168.5 325.25,-204.5"/>
<text xml:space="preserve" text-anchor="middle" x="277.5" y="-181.45" font-family="Times New Roman,serif" font-size="14.00">simple_testing</text>
</g>
<!-- simple_mml&#45;&gt;simple_testing -->
<g id="edge1" class="edge">
<title>simple_mml&#45;&gt;simple_testing</title>
<path fill="none" stroke="black" stroke-dasharray="5,2" d="M86.19,-120.5C144.29,-120.5 240.25,-120.5 240.25,-120.5 240.25,-120.5 240.25,-156.6 240.25,-156.6"/>
<polygon fill="black" stroke="black" points="236.75,-156.6 240.25,-166.6 243.75,-156.6 236.75,-156.6"/>
</g>
<!-- base -->
<g id="node3" class="node">
<title>base</title>
<polygon fill="lightgray" stroke="black" points="304.5,-132.5 250.5,-132.5 250.5,-96.5 304.5,-96.5 304.5,-132.5"/>
<text xml:space="preserve" text-anchor="middle" x="277.5" y="-109.45" font-family="Times New Roman,serif" font-size="14.00">base</text>
</g>
<!-- simple_mml&#45;&gt;base -->
<g id="edge2" class="edge">
<title>simple_mml&#45;&gt;base</title>
<path fill="none" stroke="black" stroke-dasharray="5,2" d="M86.18,-108.5C86.18,-108.5 238.69,-108.5 238.69,-108.5"/>
<polygon fill="black" stroke="black" points="238.69,-112 248.69,-108.5 238.69,-105 238.69,-112"/>
</g>
<!-- testing -->
<g id="node4" class="node">
<title>testing</title>
<polygon fill="lightgray" stroke="black" points="304.5,-60.5 250.5,-60.5 250.5,-24.5 304.5,-24.5 304.5,-60.5"/>
<text xml:space="preserve" text-anchor="middle" x="277.5" y="-37.45" font-family="Times New Roman,serif" font-size="14.00">testing</text>
</g>
<!-- simple_mml&#45;&gt;testing -->
<g id="edge3" class="edge">
<title>simple_mml&#45;&gt;testing</title>
<path fill="none" stroke="black" stroke-dasharray="5,2" d="M43.25,-96.33C43.25,-75 43.25,-42.5 43.25,-42.5 43.25,-42.5 238.66,-42.5 238.66,-42.5"/>
<polygon fill="black" stroke="black" points="238.66,-46 248.66,-42.5 238.66,-39 238.66,-46"/>
</g>
</g>
</svg>
